# xmcd
#
# Track frame offsets: 
#        150
#        31330
#        59380
#        92485
#        115850
#        153280
#        196915
#        221470
#
# Disc length: 3352 seconds
#
# Revision: 0
# Processed by: cddbd v1.4PL0 Copyright (c) Steve Scherf et al.
# Submitted via: ExactAudioCopy v0.90b4
#
DISCID=600d1608
DTITLE=Eric Clapton - The Ritz  11-23-86  d1
DYEAR=1900
DGENRE=
TTITLE0=Tearin' Us Apart
TTITLE1=Holy Mother
TTITLE2=Badge
TTITLE3=Let It Rain
TTITLE4=Cocaine
TTITLE5=Layla
TTITLE6=Further On Up the Road
TTITLE7=Sunshine of Your Love
EXTD=
EXTT0=
EXTT1=
EXTT2=
EXTT3=
EXTT4=
EXTT5=
EXTT6=
EXTT7=
PLAYORDER=
